<svg xmlns="http://www.w3.org/2000/svg" viewBox="0 0 155.04 174.58"><defs><style>.cls-1{fill:#fff;}.cls-2{font-size:6.89px;fill:#1d1d1b;font-family:BundesSerif-Medium, BundesSerif;font-weight:500;}.cls-3{letter-spacing:0.03em;}.cls-4{letter-spacing:0.02em;}.cls-5{letter-spacing:0em;}.cls-6{letter-spacing:0.01em;}.cls-7{letter-spacing:0.01em;}.cls-8{letter-spacing:0.02em;}.cls-9{letter-spacing:0.05em;}.cls-10{letter-spacing:0.03em;}.cls-11{letter-spacing:0.01em;}.cls-12{letter-spacing:0.02em;}.cls-13{letter-spacing:0.03em;}.cls-14{fill:#f7d100;}.cls-15{fill:#e3001a;}.cls-16{fill:#1a171c;}</style></defs><g id="Ebene_2" data-name="Ebene 2"><g id="Ebene_1-2" data-name="Ebene 1"><path class="cls-1" d="M77.52,0a11.5,11.5,0,0,0-5.73,1.53L5.53,39.72A11,11,0,0,0,0,49.28v76.6a11.06,11.06,0,0,0,5.53,9.57L69.9,172.54a15.25,15.25,0,0,0,15.24,0l64.37-37.09a11.06,11.06,0,0,0,5.53-9.57V49.28a11,11,0,0,0-5.53-9.56L83.25,1.53A11.5,11.5,0,0,0,77.52,0"/><text class="cls-2" transform="translate(35.25 49.84)"><tspan class="cls-3">G</tspan><tspan class="cls-4" x="4.97" y="0">e</tspan><tspan class="cls-5" x="8.35" y="0">f</tspan><tspan class="cls-6" x="10.71" y="0">รถ</tspan><tspan class="cls-7" x="14.56" y="0">rd</tspan><tspan class="cls-8" x="21.32" y="0">e</tspan><tspan class="cls-9" x="24.69" y="0">r</tspan><tspan x="27.75" y="0">t </tspan><tspan class="cls-7" x="31.59" y="0">d</tspan><tspan class="cls-10" x="35.54" y="0">u</tspan><tspan class="cls-11" x="39.75" y="0">r</tspan><tspan class="cls-12" x="42.57" y="0">c</tspan><tspan class="cls-13" x="45.86" y="0">h</tspan><tspan x="50.11" y="0">:</tspan></text><text class="cls-2" transform="translate(35.53 122.06)">Aufgrund eines Beschlusses</text><text class="cls-2" transform="translate(35.53 130.11)">des Deutschen Bundestages</text><polygon class="cls-14" points="56.17 89.79 57.16 89.79 57.16 102.93 54.86 102.93 54.86 89.79 56.17 89.79"/><polygon class="cls-15" points="56.17 76.59 57.16 76.59 57.16 89.79 54.86 89.79 54.86 76.59 56.17 76.59"/><path class="cls-16" d="M48.88,68.11a1.85,1.85,0,0,0,2,1,5.78,5.78,0,0,1-1.3-1.48l-1.23-2a2.9,2.9,0,0,0-.9-1.59,1.56,1.56,0,0,0,.37-.19,20.47,20.47,0,0,1-2-.4.41.41,0,0,0-.46.39c0,.24.27.5.75.5a3.43,3.43,0,0,0,.39,0,1.87,1.87,0,0,1,.46,1.13c0,.86-1,1.53-2.07,1.53h-.17a2.34,2.34,0,0,1-.41-1c0-.69.45-1.24.45-1.92a1.26,1.26,0,0,0-.29-.79,1.14,1.14,0,0,0,.3-.36.78.78,0,0,1-.29,0c-.5,0-.9-.13-1.3-.13-.22,0-.28.07-.28.14s0,0,0,.06L42.6,63a2.22,2.22,0,0,0-.38,0c-.48,0-.65.21-.65.38a1.48,1.48,0,0,0,.25.61,1.46,1.46,0,0,1,.51-.15.74.74,0,0,1,.6.53,2.31,2.31,0,0,1-.37,0,3,3,0,0,1-.86-.17,0,0,0,0,0,0,0c0,.07.13.24.39.34a5.1,5.1,0,0,0,1,.19s-.09.18-.19.21a.06.06,0,0,1-.06,0,4.49,4.49,0,0,1-.92-.27s0,0,0,0c0,.18.47.58.89.74a4.5,4.5,0,0,0-1,1.6h-.18c-1,0-2.07-.67-2.07-1.53A1.82,1.82,0,0,1,40,64.38a3.22,3.22,0,0,0,.39,0c.47,0,.72-.26.74-.5a.41.41,0,0,0-.46-.39,20.18,20.18,0,0,1-2,.4,1.46,1.46,0,0,0,.36.19,2.9,2.9,0,0,0-.9,1.59l-1.23,2a5.59,5.59,0,0,1-1.3,1.48,1.86,1.86,0,0,0,2-1l.63-1a1.92,1.92,0,0,0,.17.39l-1.26,2A5.59,5.59,0,0,1,35.77,71a1.86,1.86,0,0,0,2-1l1.08-1.73a3,3,0,0,0,.25.25l-1.52,2.44a5.61,5.61,0,0,1-1.3,1.47,1.85,1.85,0,0,0,2-1l1.49-2.38a1.49,1.49,0,0,0,.3.18L38.25,72A5.78,5.78,0,0,1,37,73.5a1.85,1.85,0,0,0,2-1l1.87-3,.33.12L39,73a5.82,5.82,0,0,1-1.3,1.48,1.85,1.85,0,0,0,2-1L42,69.8H42a2,2,0,0,1,.11.56,4.06,4.06,0,0,1-1.63,2.89.55.55,0,0,0,.24,0,1.73,1.73,0,0,0,.39,0,9.58,9.58,0,0,1-.87,1.39,7,7,0,0,0-1-.09c-.29,0-.32.17-.32.32a.75.75,0,0,0,.27.59c.05-.14.16-.32.7-.32h0c-.16.17-.65.57-.65.89a.59.59,0,0,0,.54.52.56.56,0,0,1,0-.17,1.39,1.39,0,0,1,.43-.78.57.57,0,0,0,0,.13c0,.62.06.9.45.9a.58.58,0,0,0,.36-.14.83.83,0,0,1-.26-.76v-.29a2.17,2.17,0,0,0,0-.26,1.67,1.67,0,0,1,.3,0s.55,0,.69.24c.15-.14.36-.33.36-.54s-.06-.3-.35-.3c-.11,0-.44.06-.73.06a7.86,7.86,0,0,1,.71-1,.8.8,0,0,0,.27.41,2.83,2.83,0,0,1,.52-1.39,7.33,7.33,0,0,1,.09,1.21c0,1.52-.36,2.64-1.14,2.86a.7.7,0,0,0,.54.33c.28,0,.44-.32.6-.62.08.22.3.77.53.77s.46-.55.54-.77c.16.3.31.62.59.62a.67.67,0,0,0,.54-.33c-.78-.22-1.14-1.34-1.14-2.86a7,7,0,0,1,.1-1.21A3,3,0,0,1,44.35,74a.77.77,0,0,0,.26-.41,7,7,0,0,1,.71,1c-.28,0-.62-.06-.73-.06-.28,0-.35.16-.35.3s.22.4.37.54c.13-.28.68-.24.68-.24a1.62,1.62,0,0,1,.3,0,2.17,2.17,0,0,0,0,.26v.29a.83.83,0,0,1-.26.76.61.61,0,0,0,.36.14c.39,0,.45-.28.45-.9v-.13a1.44,1.44,0,0,1,.42.78.56.56,0,0,1,0,.17.58.58,0,0,0,.54-.52c0-.32-.49-.72-.65-.89h.06c.53,0,.64.18.7.32a.78.78,0,0,0,.26-.59c0-.15,0-.32-.32-.32a6.75,6.75,0,0,0-1,.09,8.79,8.79,0,0,1-.88-1.39,1.85,1.85,0,0,0,.39,0,.62.62,0,0,0,.25,0,4,4,0,0,1-1.63-2.89,2,2,0,0,1,.1-.56h.07l2.24,3.59a1.86,1.86,0,0,0,2,1A5.44,5.44,0,0,1,47.37,73l-2.11-3.37.34-.12,1.86,3a1.85,1.85,0,0,0,2,1A5.41,5.41,0,0,1,48.16,72l-1.81-2.9a2.38,2.38,0,0,0,.3-.18l1.48,2.38a1.85,1.85,0,0,0,2,1,5.61,5.61,0,0,1-1.3-1.47L47.3,68.45a3.07,3.07,0,0,0,.26-.25l1.08,1.73a1.85,1.85,0,0,0,2,1,5.78,5.78,0,0,1-1.3-1.48l-1.25-2c.06-.13.12-.25.17-.39ZM38.82,65.8a2.19,2.19,0,0,1,.74-1.5l.14,0a1.92,1.92,0,0,0-.56,1.22,2.36,2.36,0,0,0,2.49,2c0,.1,0,.2,0,.3s0,.31,0,.45a2.8,2.8,0,0,1-2.82-2.54m2,9v0h0a4.57,4.57,0,0,0,.76,0l.18,0c.11,0,.19,0,.19.15a.52.52,0,0,1-.2.31,1,1,0,0,0-.69-.17,2.65,2.65,0,0,0-.44,0h0v.05a2.68,2.68,0,0,1,0,.34v.3a1.06,1.06,0,0,0,.18.72l-.12,0c-.22,0-.29-.1-.29-.74a3.12,3.12,0,0,0,0-.33v-.11l0,0a1.75,1.75,0,0,0-.69,1,.44.44,0,0,1-.21-.31c0-.19.27-.46.59-.78l.19-.18,0,0h-.06a1.25,1.25,0,0,0-.3,0,.91.91,0,0,0-.72.21.71.71,0,0,1-.1-.33.23.23,0,0,1,0-.14.17.17,0,0,1,.12,0h0a7.15,7.15,0,0,1,1,.1h0a9.48,9.48,0,0,0,1-1.58.57.57,0,0,1,.16,0c.15,0,.19.1.23.26a4.76,4.76,0,0,0-.86,1.32m4-1.58a.5.5,0,0,1,.16,0,10.21,10.21,0,0,0,1,1.58h0a7.15,7.15,0,0,1,1-.1h0a.17.17,0,0,1,.12,0,.18.18,0,0,1,0,.14.7.7,0,0,1-.09.33.93.93,0,0,0-.72-.21,1.25,1.25,0,0,0-.31,0h-.06l.21.21c.32.32.59.59.59.78a.43.43,0,0,1-.2.31,1.75,1.75,0,0,0-.69-1l0,0v.11c0,.08,0,.21,0,.33,0,.64-.06.74-.28.74l-.12,0a1.12,1.12,0,0,0,.17-.72v-.29a3,3,0,0,1,0-.35v-.05h0a2.89,2.89,0,0,0-.45,0,1,1,0,0,0-.68.17.54.54,0,0,1-.21-.31c0-.14.08-.15.19-.15l.18,0a4.67,4.67,0,0,0,.76,0h0v0a5.12,5.12,0,0,0-.87-1.32c0-.16.08-.26.23-.26m-1.74-8.73a1.49,1.49,0,0,0-.27-.55.8.8,0,0,0-.57-.3,1.49,1.49,0,0,0-.44.11,1.34,1.34,0,0,1-.14-.38c0-.1.17-.19.47-.19.68,0,1.09.3,1.09.82a1.32,1.32,0,0,1-.14.49m.3-.67a.85.85,0,0,0-.16-.39c0-.13.06-.26.27-.16-.11.12,0,.33,0,.33s.23-.11.18-.26c.35.08.1.55-.27.48m1.32,4.53a3.4,3.4,0,0,0,0-.45c0-.09,0-.19,0-.3a2.36,2.36,0,0,0,2.46-2,2,2,0,0,0-.56-1.22l.13,0a2.19,2.19,0,0,1,.74,1.5,2.8,2.8,0,0,1-2.79,2.54m12.37-4.82V76.66h-2.3V63.52Zm7.78,3.79a1.42,1.42,0,0,1-.41,1.15,1.85,1.85,0,0,1-1.2.32H62V63.41h1.43a1.48,1.48,0,0,1,1,.31,1.33,1.33,0,0,1,.34,1,1.44,1.44,0,0,1-.17.77A1,1,0,0,1,64,66a1,1,0,0,1,.72.47,1.66,1.66,0,0,1,.18.87m-.73-2.52a.88.88,0,0,0-.24-.7,1.11,1.11,0,0,0-.7-.18h-.63v1.84h.66c.61,0,.91-.32.91-1m.08,2.49a1.17,1.17,0,0,0-.22-.79,1,1,0,0,0-.75-.25h-.68v2h.58a1.29,1.29,0,0,0,.8-.19,1,1,0,0,0,.27-.8m4.17,1.49h-.59V68.3a1.05,1.05,0,0,1-.94.53c-.67,0-1-.38-1-1.15V65h.58v2.39a2,2,0,0,0,.08.66.51.51,0,0,0,.52.32c.49,0,.73-.37.73-1.09V65h.6V68c0,.29,0,.57,0,.82m3.58,0h-.59V66.39a2.45,2.45,0,0,0-.06-.67.51.51,0,0,0-.51-.32.64.64,0,0,0-.59.37,1.5,1.5,0,0,0-.17.76v2.24h-.59V65.85c0-.33,0-.6,0-.82h.58v.52a1,1,0,0,1,1-.6q1,0,1,1.17Zm3.57,0H75v-.43a1.05,1.05,0,0,1-1.86-.15A3.74,3.74,0,0,1,73,66.85a3.1,3.1,0,0,1,.2-1.29A1,1,0,0,1,75,65.39v-2h.59v4.66c0,.13,0,.37,0,.7M75,66.94a3.92,3.92,0,0,0-.11-1.09.62.62,0,0,0-1.2,0,3.56,3.56,0,0,0-.1,1,3.43,3.43,0,0,0,.12,1.07.56.56,0,0,0,.55.46.62.62,0,0,0,.64-.46,3.87,3.87,0,0,0,.1-1m4.09,0h-2v.25a2.34,2.34,0,0,0,.1.82.58.58,0,0,0,.58.37c.43,0,.66-.28.68-.83h.58a1.14,1.14,0,0,1-1.26,1.25,1.12,1.12,0,0,1-1.07-.53,2.83,2.83,0,0,1-.21-1.27,4,4,0,0,1,.18-1.42A1.14,1.14,0,0,1,77.87,65a1,1,0,0,1,1.06.6,3.38,3.38,0,0,1,.17,1.27Zm-.6-.4a2.75,2.75,0,0,0-.07-.77.55.55,0,0,0-.57-.44q-.61,0-.69.72a4.15,4.15,0,0,0,0,.49Zm3.6,1.16c0,.73-.39,1.09-1.17,1.09s-1.14-.4-1.13-1.21h.59a1.34,1.34,0,0,0,0,.21c0,.39.21.59.55.59a.51.51,0,0,0,.56-.58.66.66,0,0,0-.18-.49,2.18,2.18,0,0,0-.49-.33,4,4,0,0,1-.67-.41.92.92,0,0,1-.29-.7.88.88,0,0,1,.32-.73A1.25,1.25,0,0,1,81,65a1.06,1.06,0,0,1,.82.27,1.24,1.24,0,0,1,.26.84H81.5c0-.47-.18-.7-.53-.7a.47.47,0,0,0-.36.14.54.54,0,0,0,.08.8,3,3,0,0,0,.52.33,2.58,2.58,0,0,1,.63.42,1,1,0,0,1,.26.7m5,1h-.59V66.26a1.6,1.6,0,0,0-.07-.58.45.45,0,0,0-.45-.27c-.44,0-.66.33-.66,1v2.35h-.59V66.23a1.72,1.72,0,0,0-.06-.55.42.42,0,0,0-.45-.27.55.55,0,0,0-.51.32,1.61,1.61,0,0,0-.16.75v2.29H83V65.68c0-.22,0-.44,0-.65h.58v.49a1,1,0,0,1,.89-.57.8.8,0,0,1,.83.57,1,1,0,0,1,.93-.57.77.77,0,0,1,.72.34,1.7,1.7,0,0,1,.2.94Zm1.72-4.65h-.65v-.64h.65Zm0,4.66h-.59V65h.59Zm3.61,0h-.58V66.39a2.34,2.34,0,0,0-.07-.67.5.5,0,0,0-.51-.32.65.65,0,0,0-.59.37,1.61,1.61,0,0,0-.17.76v2.24H89.9V65.85c0-.33,0-.6,0-.82h.58v.52a1,1,0,0,1,1-.6c.65,0,1,.39,1,1.17Zm1.72-4.65h-.64v-.64h.64Zm0,4.66h-.59V65h.59Zm3.17-1c0,.73-.39,1.09-1.17,1.09S95,68.44,95,67.63h.59v.21c0,.39.22.59.55.59a.51.51,0,0,0,.57-.58.66.66,0,0,0-.18-.49A2.08,2.08,0,0,0,96,67a5.24,5.24,0,0,1-.67-.41,1,1,0,0,1-.28-.7.88.88,0,0,1,.32-.73,1.23,1.23,0,0,1,.8-.24,1.06,1.06,0,0,1,.82.27,1.29,1.29,0,0,1,.26.84h-.59c0-.47-.17-.7-.52-.7a.5.5,0,0,0-.37.14.52.52,0,0,0-.13.37.54.54,0,0,0,.21.43,3.22,3.22,0,0,0,.53.33,2.48,2.48,0,0,1,.62.42,1,1,0,0,1,.27.7m2.33,1-.43,0a.89.89,0,0,1-.69-.21,1.2,1.2,0,0,1-.15-.71V65.46h-.56V65h.56v-.69l.58-.26v1h.67v.43h-.67v2.36a.68.68,0,0,0,.09.42.42.42,0,0,0,.33.1l.27,0ZM102.76,67h-2v.25a2.34,2.34,0,0,0,.1.82.57.57,0,0,0,.58.37c.43,0,.66-.28.68-.83h.58a1.14,1.14,0,0,1-1.26,1.25,1.12,1.12,0,0,1-1.07-.53,2.83,2.83,0,0,1-.21-1.27,4,4,0,0,1,.18-1.42,1.14,1.14,0,0,1,1.15-.68,1.06,1.06,0,0,1,1.07.6,3.66,3.66,0,0,1,.16,1.27Zm-.6-.4a2.75,2.75,0,0,0-.07-.77.55.55,0,0,0-.57-.44q-.61,0-.69.72a4.15,4.15,0,0,0,0,.49Zm3.09-1.07h-.12a.78.78,0,0,0-.64.26,1.05,1.05,0,0,0-.21.69v2.31h-.59v-3c0-.26,0-.48,0-.69h.58v.49a1,1,0,0,1,1-.56s.06.19.06.56m1.32-1.4h-.64v-.64h.64Zm0,4.66H106V65h.58Zm3.65,0h-.59V68.3a1,1,0,0,1-.94.53c-.67,0-1-.38-1-1.15V65h.59v2.39a2.07,2.07,0,0,0,.07.66.51.51,0,0,0,.52.32c.49,0,.73-.37.73-1.09V65h.6V68c0,.29,0,.57,0,.83m5.19,0h-.58V66.26a1.55,1.55,0,0,0-.08-.58.43.43,0,0,0-.44-.27c-.44,0-.66.33-.66,1v2.36H113V66.23a1.72,1.72,0,0,0-.06-.55.43.43,0,0,0-.45-.27.54.54,0,0,0-.51.32,1.52,1.52,0,0,0-.16.75v2.3h-.59v-3.1c0-.22,0-.44,0-.65h.59v.49a1,1,0,0,1,.88-.57.8.8,0,0,1,.84.57,1,1,0,0,1,.92-.57.79.79,0,0,1,.73.34,1.72,1.72,0,0,1,.19.94Zm-52,3h-.23a.38.38,0,0,0-.37.2,1.28,1.28,0,0,0-.06.45v.55h.64v.43H62.7v3.31h-.58V73.35h-.55v-.43h.55v-.41a1.83,1.83,0,0,1,.15-.87.81.81,0,0,1,.8-.39l.29,0Zm3.28,4.93h-.59v-.48a1.05,1.05,0,0,1-.94.54c-.67,0-1-.39-1-1.15V72.92h.59v2.39a2,2,0,0,0,.07.65.51.51,0,0,0,.52.32c.49,0,.73-.37.73-1.09V72.92h.6v2.91c0,.29,0,.57,0,.83m-.42-4.6h-.56v-.72h.56Zm-1.16,0h-.55v-.72h.55Zm4.21,1.35-.12,0a.78.78,0,0,0-.64.26,1.05,1.05,0,0,0-.21.69v2.32h-.59V73.6c0-.25,0-.48,0-.68h.58v.49a1,1,0,0,1,.95-.57s.06.19.06.57m8-2.12-1.23,5.37h-.76L74.35,72l-1,4.71H72.6l-1.19-5.37h.67L73,76l1-4.69h.75L75.7,76l1-4.69Zm1.19.71h-.65v-.64h.65Zm0,4.66h-.59V72.92h.59Zm2.66-3.25-.12,0a.78.78,0,0,0-.64.26,1.05,1.05,0,0,0-.21.69v2.32h-.59V73.6c0-.25,0-.48,0-.68h.58v.49a1,1,0,0,1,1-.57s.06.19.06.57m2.15,3.25-.43,0a.92.92,0,0,1-.69-.22,1.19,1.19,0,0,1-.15-.7V73.35h-.56v-.43H82v-.69l.58-.26v1h.67v.43h-.67V75.7a.68.68,0,0,0,.09.42.43.43,0,0,0,.34.11l.26,0Zm2.81-1c0,.73-.39,1.09-1.17,1.09s-1.15-.4-1.13-1.21h.59v.21c0,.39.22.59.55.59a.51.51,0,0,0,.57-.58.66.66,0,0,0-.18-.49,2.32,2.32,0,0,0-.5-.33,4.27,4.27,0,0,1-.67-.41.94.94,0,0,1-.28-.69.89.89,0,0,1,.32-.74,1.22,1.22,0,0,1,.79-.24,1,1,0,0,1,.83.28,1.26,1.26,0,0,1,.26.83h-.59c0-.47-.17-.7-.53-.7a.49.49,0,0,0-.36.14.52.52,0,0,0-.13.37.56.56,0,0,0,.21.44,4.52,4.52,0,0,0,.53.32,2.78,2.78,0,0,1,.62.42,1,1,0,0,1,.27.7m3.18-.14c0,.83-.38,1.24-1.16,1.24A1.1,1.1,0,0,1,87,76.21a3.13,3.13,0,0,1-.21-1.36A3.68,3.68,0,0,1,87,73.47a1.09,1.09,0,0,1,1.11-.64,1.17,1.17,0,0,1,.91.3,1.4,1.4,0,0,1,.24.91h-.58q0-.78-.57-.78a.6.6,0,0,0-.61.49,4.77,4.77,0,0,0-.08,1A3.68,3.68,0,0,0,87.53,76a.52.52,0,0,0,.53.36.5.5,0,0,0,.49-.25,1.17,1.17,0,0,0,.11-.57Zm3.34,1.17H92V74.27a2,2,0,0,0-.07-.66.49.49,0,0,0-.51-.33c-.5,0-.76.37-.76,1.11v2.27h-.58V71.29h.58v2.06a1.14,1.14,0,0,1,.95-.52c.65,0,1,.39,1,1.18Zm3.42,0h-.57v-.49a1.18,1.18,0,0,1-1,.55.9.9,0,0,1-.74-.32,1.25,1.25,0,0,1-.23-.78,1.05,1.05,0,0,1,.61-1.07,3.46,3.46,0,0,1,1.32-.19v-.17a1.93,1.93,0,0,0-.07-.64.5.5,0,0,0-.51-.29.67.67,0,0,0-.44.15.48.48,0,0,0-.18.41v0h-.59v0a.87.87,0,0,1,.37-.76,1.5,1.5,0,0,1,.87-.23,1.08,1.08,0,0,1,.89.32,1.42,1.42,0,0,1,.24.93v1.38c0,.45,0,.85,0,1.2m-.62-1.45v-.45h-.15q-1.17,0-1.17.81c0,.48.18.72.55.72a.67.67,0,0,0,.62-.36,1.54,1.54,0,0,0,.15-.72m3.11-3.48h-.23a.37.37,0,0,0-.37.2,1.28,1.28,0,0,0-.06.45v.55h.64v.43h-.64v3.31h-.59V73.35h-.55v-.43h.55v-.41a1.83,1.83,0,0,1,.15-.87.83.83,0,0,1,.8-.39l.3,0Zm2.18,4.93-.43,0a.92.92,0,0,1-.69-.22,1.19,1.19,0,0,1-.15-.7V73.35h-.56v-.43h.56v-.69L100,72v1h.67v.43H100V75.7a.68.68,0,0,0,.09.42.43.43,0,0,0,.34.11l.26,0v.46ZM64.46,84.54h-.58v-.48a1.06,1.06,0,0,1-.94.54c-.67,0-1-.39-1-1.15V80.8h.59v2.39a2,2,0,0,0,.08.65.49.49,0,0,0,.51.32c.49,0,.74-.36.74-1.09V80.8h.59v2.91c0,.3,0,.57,0,.83m3.59,0h-.59V82.15a2,2,0,0,0-.07-.66.49.49,0,0,0-.51-.33.62.62,0,0,0-.58.37,1.55,1.55,0,0,0-.17.76v2.25h-.59V81.61q0-.49,0-.81h.58v.51a1,1,0,0,1,1-.59c.66,0,1,.38,1,1.16Zm3.57,0h-.57v-.43a1,1,0,0,1-.88.49,1,1,0,0,1-1-.65A3.67,3.67,0,0,1,69,82.62a3.16,3.16,0,0,1,.21-1.3.94.94,0,0,1,.94-.6.93.93,0,0,1,.84.43v-2h.6v4.66c0,.14,0,.37,0,.71M71,82.7a4,4,0,0,0-.11-1.09.6.6,0,0,0-.61-.46.59.59,0,0,0-.59.49,3.43,3.43,0,0,0-.1,1,4,4,0,0,0,.11,1.08.59.59,0,0,0,.56.46.61.61,0,0,0,.63-.47,3.34,3.34,0,0,0,.11-1m6.08,1.84H74.58V79.17h2.47v.51H75.21v1.84H77V82H75.21v2H77.1Zm3.39,0H79.9V82.15a2,2,0,0,0-.07-.66.49.49,0,0,0-.51-.33.65.65,0,0,0-.59.37,1.67,1.67,0,0,0-.17.76v2.25H78V81.61q0-.49,0-.81h.58v.51a1,1,0,0,1,1-.59c.66,0,1,.38,1,1.16ZM84,82.75H82V83a2.25,2.25,0,0,0,.11.82.56.56,0,0,0,.58.37c.43,0,.65-.28.67-.82H84a1.13,1.13,0,0,1-1.25,1.24,1.09,1.09,0,0,1-1.07-.53,2.78,2.78,0,0,1-.22-1.26,4,4,0,0,1,.19-1.43,1.11,1.11,0,0,1,1.14-.67,1,1,0,0,1,1.07.59A3.47,3.47,0,0,1,84,82.58Zm-.59-.4a2.8,2.8,0,0,0-.07-.77.56.56,0,0,0-.58-.44c-.4,0-.63.24-.69.73a3.87,3.87,0,0,0,0,.48Zm3.09-1.06-.13,0a.77.77,0,0,0-.63.26,1.07,1.07,0,0,0-.21.69v2.32h-.6V81.48c0-.25,0-.48,0-.68h.58v.49a1,1,0,0,1,1-.57s.06.19.06.57m3.09-.49s0,.15,0,.29,0,.25,0,.33v3.27a1.32,1.32,0,0,1-.32,1,1.39,1.39,0,0,1-1,.31c-.77,0-1.17-.36-1.18-1.08h.63c0,.45.19.68.58.68a.59.59,0,0,0,.6-.33,1.75,1.75,0,0,0,.1-.71v-.5a1,1,0,0,1-.87.43.94.94,0,0,1-1-.58A3,3,0,0,1,87,82.7a3.8,3.8,0,0,1,.19-1.35,1,1,0,0,1,.95-.63.93.93,0,0,1,.9.52V80.8ZM89,82.55a3.12,3.12,0,0,0-.11-.94.62.62,0,0,0-.61-.46.61.61,0,0,0-.6.52,4.14,4.14,0,0,0-.09,1,3.23,3.23,0,0,0,.09.92.56.56,0,0,0,.57.47.68.68,0,0,0,.67-.56,4.32,4.32,0,0,0,.08-1m2.3-2.67h-.65v-.63h.65Zm0,4.66h-.59V80.8h.59Zm3.52-1.79h-2V83a2.3,2.3,0,0,0,.1.82.56.56,0,0,0,.58.37c.43,0,.65-.28.67-.82h.58a1.13,1.13,0,0,1-1.25,1.24,1.09,1.09,0,0,1-1.07-.53,2.81,2.81,0,0,1-.21-1.26,4,4,0,0,1,.18-1.43,1.11,1.11,0,0,1,1.14-.67,1,1,0,0,1,1.07.59,3.42,3.42,0,0,1,.17,1.27Zm-.6-.4a2.8,2.8,0,0,0-.07-.77.56.56,0,0,0-.57-.44c-.41,0-.64.24-.69.73a3.87,3.87,0,0,0,0,.48Z"/></g></g></svg>