<svg xmlns="http://www.w3.org/2000/svg" viewBox="0 0 150.18 27.65"><defs><style>.cls-1{fill:#fff;}</style></defs><g id="Ebene_2" data-name="Ebene 2"><g id="Ebene_1-2" data-name="Ebene 1"><path class="cls-1" d="M10,11.07a19.74,19.74,0,0,0-2.6-.85c-.77-.23-1.56-.4-2.34-.61A1,1,0,0,1,4.4,9c-.24-.86,0-1.81,1.1-2a11.12,11.12,0,0,1,2.31-.1c1,0,2,.18,3,.27.5,0,.61,0,.74-.53s.23-1,.34-1.44c.15-.63,0-.91-.59-1.11a16.39,16.39,0,0,0-2.48-.63,12.65,12.65,0,0,0-4.59,0A4.84,4.84,0,0,0,0,7.77,4.36,4.36,0,0,0,2.6,12.63a14.75,14.75,0,0,0,3,1,19.17,19.17,0,0,1,2,.55,1.37,1.37,0,0,1,.83,1.5,1.33,1.33,0,0,1-1,1.33,4,4,0,0,1-1.36.22c-1.64-.09-3.29-.23-4.93-.37-.52,0-.66,0-.78.51S.18,18.42.07,19a.65.65,0,0,0,.42.88A3.29,3.29,0,0,0,.88,20a15.45,15.45,0,0,0,4.64.77,11,11,0,0,0,3-.3,5.38,5.38,0,0,0,3.08-1.84,5.32,5.32,0,0,0,1-4A4.1,4.1,0,0,0,10,11.07M60.62,8.41c-.09-.74-.26-.87-1-.72l-.21,0a8,8,0,0,0-2.24,1c-.4.26-.78.56-1.22.88V8.44c0-.47-.17-.64-.64-.64H52.63c-.45,0-.61.17-.61.63q0,5.75,0,11.49c0,.48.14.63.63.63h2.57c.62,0,.74-.12.74-.74q0-3.42,0-6.84c0-.2,0-.33.27-.38s.42-.15.63-.2l3.49-.85c.52-.12.63-.24.57-.76-.09-.79-.2-1.58-.29-2.37M44.44,15.2c-.91,0-1.77,0-2.63,0a1.2,1.2,0,0,0-1.23,1.33c0,.91.1,1.36,1.35,1.26A5.87,5.87,0,0,0,44.26,17c.07,0,.17-.12.17-.18,0-.55,0-1.09,0-1.63m5.45,3c0,.55,0,1.11,0,1.66a.57.57,0,0,1-.46.59,6,6,0,0,1-3.08.13A1.9,1.9,0,0,1,45,19.27c0-.08-.06-.15-.1-.27A7.12,7.12,0,0,1,39,20.63a2.68,2.68,0,0,1-2.23-2.18,6.19,6.19,0,0,1,0-3.14,3.33,3.33,0,0,1,2.82-2.42,19,19,0,0,1,2.61-.2c.75,0,1.49,0,2.23,0a1.31,1.31,0,0,0-1.24-1.86c-1.17,0-2.35,0-3.52.09-.41,0-.81.07-1.21.1s-.5-.06-.59-.42-.22-1-.31-1.5A.58.58,0,0,1,38,8.41a8.54,8.54,0,0,1,1.45-.49,15.41,15.41,0,0,1,5.2-.24,8,8,0,0,1,1.86.5,3,3,0,0,1,1.77,2.52,14.21,14.21,0,0,1,.12,1.84c0,1.38,0,2.76,0,4.14a2.84,2.84,0,0,0,0,.51.57.57,0,0,0,.52.51l.56.08a.39.39,0,0,1,.37.41m21.25-.33c-.1-.9-.14-.92-1-.85a12.44,12.44,0,0,1-1.93,0c-.81-.06-1-.33-1-1.15,0-1.56,0-3.12,0-4.68,0-.1,0-.19,0-.31h2.64c.4,0,.52-.12.52-.5,0-.69,0-1.39,0-2.08,0-.36-.11-.47-.47-.48s-.93,0-1.39,0H67.14V7.47c0-1,0-2,0-3,0-.46-.2-.62-.65-.51l-2.62.71a.63.63,0,0,0-.54.73c0,.7,0,1.41,0,2.11,0,.11,0,.21,0,.35H62.18c-.43,0-.56.14-.57.56,0,.65,0,1.29,0,1.94,0,.44.14.56.59.57h1.08v.4c0,1.72,0,3.43,0,5.14A14.35,14.35,0,0,0,63.4,18a2.86,2.86,0,0,0,2.43,2.58,10.9,10.9,0,0,0,5.07-.42.66.66,0,0,0,.45-.79c-.07-.51-.15-1-.21-1.55M34.29,12.3c0,2.53,0,5.06,0,7.59,0,.53-.13.66-.65.66H31.11c-.61,0-.74-.12-.74-.72,0-2.21,0-4.41,0-6.62a5.18,5.18,0,0,0-.13-1.11,1,1,0,0,0-1-.81,4.68,4.68,0,0,0-2.5.68c-.08,0-.11.22-.11.34q0,3.72,0,7.43c0,.75-.06.81-.81.81H23.56c-.78,0-.84-.05-.84-.85,0-2.11,0-4.23,0-6.35a7.31,7.31,0,0,0-.1-1.14,1.07,1.07,0,0,0-1.07-.93,4.69,4.69,0,0,0-2.44.69c-.07,0-.11.22-.11.34v7.5c0,.61-.13.74-.74.74H15.69c-.49,0-.63-.14-.63-.63q0-5.72,0-11.43c0-.52.14-.66.66-.66h2.57c.57,0,.71.15.71.72V9c.3-.19.54-.37.8-.52a5.51,5.51,0,0,1,4.4-.71A2.86,2.86,0,0,1,26.07,9.2l.05.07s0,0,.06.05A8.4,8.4,0,0,1,28.52,8a5.77,5.77,0,0,1,3.21-.25,2.89,2.89,0,0,1,2.37,2.51,11.07,11.07,0,0,1,.19,2.07"/><path class="cls-1" d="M99.17,26a1.61,1.61,0,1,1-1.61-1.61A1.61,1.61,0,0,1,99.17,26M86.62,18.32A1.61,1.61,0,1,1,85,16.71a1.61,1.61,0,0,1,1.61,1.61m0,0A1.61,1.61,0,1,1,85,16.71a1.61,1.61,0,0,1,1.61,1.61m0,0A1.61,1.61,0,1,1,85,16.71a1.61,1.61,0,0,1,1.61,1.61m7.79-.08a.05.05,0,0,1,0,0l-3.23,1.87-1.88-1.09a1.61,1.61,0,0,0-1.61,2.79l.27.15-2.06,1.19h0l-8.5-4.91s0,0,0,0V8.42s0,0,0,0l8.5-4.91h0l8.51,4.91a.05.05,0,0,1,0,0Zm-3.23,5.39A1.61,1.61,0,1,1,92.79,22a1.61,1.61,0,0,1-1.61,1.61m3.52-1.44-.08,0,1.5-.87a3.51,3.51,0,0,0,1.75-3V8.42a3.51,3.51,0,0,0-1.75-3L87.61.47a3.5,3.5,0,0,0-3.51,0L75.6,5.38a3.5,3.5,0,0,0-1.76,3v9.82a3.5,3.5,0,0,0,1.76,3l8.5,4.91a3.51,3.51,0,0,0,3.51,0L91.4,24l1.69,1a1.56,1.56,0,0,0,.8.22,1.59,1.59,0,0,0,1.39-.8,1.61,1.61,0,0,0-.58-2.2m45-11.33c0,.41,0,.55-.46.65-.59.14-1.2.24-1.79.4-.82.21-1.63.46-2.44.68-.23.06-.28.17-.28.38q0,3.42,0,6.83c0,.63-.12.75-.73.75h-2.58c-.48,0-.63-.15-.63-.63V8.43c0-.47.16-.63.64-.63h2.66c.47,0,.63.17.64.64V9.53s0,0,0,.11l.2-.16a8.33,8.33,0,0,1,3.22-1.73,2.42,2.42,0,0,1,.6-.09c.37,0,.51.09.57.47s.13,1.06.2,1.59c0,.38.09.76.13,1.14m10,9.35a10.9,10.9,0,0,1-5.07.41,2.87,2.87,0,0,1-2.41-2.6,14.18,14.18,0,0,1-.12-1.6c0-1.7,0-3.4,0-5.11V10.9H141c-.43,0-.57-.14-.58-.56,0-.66,0-1.31,0-2,0-.4.15-.53.56-.54h1.14V7c0-.54,0-1.07,0-1.6a.61.61,0,0,1,.53-.7c.88-.25,1.76-.49,2.65-.72.43-.11.63.06.64.5v3.4h2.55c.51,0,.61.1.61.6V10.3c0,.5-.1.6-.61.6H146c0,.12,0,.21,0,.3,0,1.57,0,3.14,0,4.71,0,.8.22,1.08,1,1.13a14.25,14.25,0,0,0,2,0c.88-.07.93,0,1,.84.06.52.14,1,.21,1.55a.67.67,0,0,1-.47.81M113.16,8.52V19.89c0,.52-.14.66-.67.66h-2.66c-.48,0-.63-.15-.63-.64v-.55c-.44.24-.83.49-1.24.69a6.38,6.38,0,0,1-4.14.58,2.8,2.8,0,0,1-2.37-2.49,13.64,13.64,0,0,1-.16-2c0-2.52,0-5.05,0-7.58,0-.57.14-.71.69-.71h2.57c.53,0,.66.14.66.66v6.6a6.83,6.83,0,0,0,.06.78,1.34,1.34,0,0,0,1.64,1.25,11.81,11.81,0,0,0,1.82-.53c.48-.17.48-.19.48-.7V8.58c0-.62.13-.75.74-.75h2.54c.53,0,.68.15.68.69m10.09,8.28a.29.29,0,0,1-.15.2,5.66,5.66,0,0,1-2.38.8c-1.18.09-1.35-.33-1.32-1.21a1.24,1.24,0,0,1,1.33-1.39c.82,0,1.65,0,2.53,0,0,.55,0,1.08,0,1.61m4.88,1-.33-.05a.58.58,0,0,1-.54-.53,3.71,3.71,0,0,1-.05-.48c0-1.36,0-2.72,0-4.08a15.16,15.16,0,0,0-.13-1.9,3,3,0,0,0-2-2.64,7.79,7.79,0,0,0-1.58-.4,15.69,15.69,0,0,0-5.29.25,8.48,8.48,0,0,0-1.42.48.59.59,0,0,0-.38.66c.09.52.21,1,.32,1.56a.44.44,0,0,0,.53.38l1.27-.11a18.41,18.41,0,0,1,3.56-.09c.49.07,1,.19,1.14.74a7.72,7.72,0,0,1,.15,1.13c-.82,0-1.56,0-2.31,0a19,19,0,0,0-2.61.2,3.3,3.3,0,0,0-2.84,2.43,6.05,6.05,0,0,0-.08,2.93A2.74,2.74,0,0,0,118,20.67a6.62,6.62,0,0,0,4-.62c.56-.27,1.08-.65,1.63-1l.08.21a1.86,1.86,0,0,0,1.35,1.27,5.75,5.75,0,0,0,3.13-.11.61.61,0,0,0,.46-.66V18.42c0-.55,0-.58-.58-.66"/></g></g></svg>