<svg xmlns="http://www.w3.org/2000/svg" xmlns:xlink="http://www.w3.org/1999/xlink" viewBox="0 0 52.13 15.28"><defs><style>.cls-1{fill:none;}.cls-2{clip-path:url(#clip-path);}.cls-3{fill:#fff;fill-rule:evenodd;}</style><clipPath id="clip-path" transform="translate(0 0)"><rect class="cls-1" width="52.13" height="15.28"/></clipPath></defs><g id="Ebene_2" data-name="Ebene 2"><g id="Ebene_1-2" data-name="Ebene 1"><g class="cls-2"><path class="cls-3" d="M35.62,5.63c0,1.47-1.46,4.7-1.92,5.6C31.75,15,29.14,15,26.2,15c-1.44,0-4.64,0-4.64-2.67,0-1.2,1.05-3.41,1.91-5.5.37-.89,1.93-3.88,7.24-3.88,2.19,0,4.91.35,4.91,2.73m-6.15.17a1.45,1.45,0,0,0-1.17.41,13.39,13.39,0,0,0-1.55,5.4c0,.61.43.57,1,.57a1.61,1.61,0,0,0,1.16-.3c.82-.85,1.53-4.71,1.53-5.41,0-.49,0-.67-1-.67m-13,.12C16.48,9.3,14.4,10,12.09,10H10.47c-1.63,0-4.89-.1-4.89-.1-.27,0-.46-.06-.46.1a3.18,3.18,0,0,0,3.15,2.77,3.79,3.79,0,0,0,2.67-1.16s1.72-.2,2.83-.2,2.65.17,2.65.78c0,1.19-3.87,3.08-7.12,3.08C4.41,15.28,0,12.62,0,9.41,0,4,10.36,0,13.39,0c2.72,0,3.09,4.34,3.09,5.92m-4.22-.36c0-.69,0-1.68-.57-1.68-1.76,0-4.85,2.68-5.16,3s-.06.21.25.21h4c1.4,0,1.53-.23,1.53-1.52m9,2.29a6.9,6.9,0,0,1-.48,1.51,2.06,2.06,0,0,1-2.07,1.09c-1.06,0-1.42-.38-1.42-1a4.37,4.37,0,0,1,.44-1.37,2,2,0,0,1,2.16-1.21c.71,0,1.37.3,1.37,1m30.89-2.2c0,1.75-2.08,7.73-2.42,8.63-.23.59-.66.67-1.21.67a3.68,3.68,0,0,1-2.14-.53.35.35,0,0,1-.11-.39A45.79,45.79,0,0,0,48.08,8c0-.48-.14-.84-.62-.84-2.91,0-8.25,6.21-9.25,7.32a1.7,1.7,0,0,1-1.35.44,3.65,3.65,0,0,1-1.49-.41c-.22-.11-.23-.23-.17-.49l.19-.75a86,86,0,0,1,3.26-9.11c.05-.11.1-.21.36-.25a5.52,5.52,0,0,1,1.07-.11A4.13,4.13,0,0,1,41.67,4a6.37,6.37,0,0,1,0,.66c0,.29,0,1.26.94,1.26,1.55,0,4.36-2.65,6.84-2.65,2.18,0,2.68,1.34,2.68,2.38" transform="translate(0 0)"/></g></g></g></svg>