<svg xmlns="http://www.w3.org/2000/svg" xmlns:xlink="http://www.w3.org/1999/xlink" viewBox="0 0 215.46 40.5"><defs><style>.cls-1{fill:none;}.cls-2{clip-path:url(#clip-path);}.cls-3{fill:#1cd67c;}.cls-4{fill:#6d2f71;}</style><clipPath id="clip-path" transform="translate(-20.25 -20.25)"><rect class="cls-1" width="255.96" height="81"/></clipPath></defs><g id="Ebene_2" data-name="Ebene 2"><g id="Ebene_1-2" data-name="Ebene 1"><g class="cls-2"><path class="cls-3" d="M70.48,38.26c0,3.71,0,7.42,0,11.12,0,.78-.19,1-1,1H65.82c-.89,0-1.07-.18-1.07-1.05,0-3.23,0-6.47,0-9.7A8.05,8.05,0,0,0,64.55,38a1.47,1.47,0,0,0-1.46-1.2,7,7,0,0,0-3.66,1c-.11.05-.16.32-.16.49q0,5.44,0,10.89c0,1.1-.08,1.18-1.18,1.18H54.76c-1.14,0-1.22-.08-1.22-1.24q0-4.65,0-9.3a9.34,9.34,0,0,0-.15-1.67,1.55,1.55,0,0,0-1.56-1.36,7,7,0,0,0-3.58,1c-.11.06-.15.33-.15.5q0,5.49,0,11c0,.9-.18,1.08-1.08,1.08H43.23c-.72,0-.92-.2-.92-.91q0-8.38,0-16.75c0-.77.2-1,1-1H47c.83,0,1,.22,1,1.06v.67c.44-.29.79-.54,1.17-.76a8.07,8.07,0,0,1,6.45-1,4.17,4.17,0,0,1,2.74,2.07.44.44,0,0,0,.08.11.25.25,0,0,0,.09.07,12.28,12.28,0,0,1,3.42-2,8.3,8.3,0,0,1,4.7-.37,4.23,4.23,0,0,1,3.48,3.67,17.15,17.15,0,0,1,.27,3m22.85,8.63c0,.81,0,1.62,0,2.44a.86.86,0,0,1-.68.87,8.7,8.7,0,0,1-4.5.18,2.79,2.79,0,0,1-2-1.91,3.63,3.63,0,0,0-.15-.39,10.39,10.39,0,0,1-8.57,2.39,4,4,0,0,1-3.28-3.2,9.08,9.08,0,0,1,.07-4.6,4.86,4.86,0,0,1,4.13-3.54,28.66,28.66,0,0,1,3.83-.29c1.08-.05,2.18,0,3.26,0,.44-1.52-.28-2.68-1.81-2.73-1.72-.05-3.45.07-5.17.13-.59,0-1.18.1-1.76.14s-.74-.08-.87-.6c-.17-.73-.32-1.47-.45-2.21a.85.85,0,0,1,.57-1A12.61,12.61,0,0,1,78,31.85a22.45,22.45,0,0,1,7.62-.35,11.19,11.19,0,0,1,2.72.74,4.3,4.3,0,0,1,2.59,3.69,22,22,0,0,1,.19,2.69c0,2,0,4.05,0,6.07a6.32,6.32,0,0,0,.06.75.82.82,0,0,0,.76.74l.84.12a.55.55,0,0,1,.53.59m-8-4.38c-1.32,0-2.59-.06-3.85,0a1.75,1.75,0,0,0-1.79,1.95c-.07,1.33.14,2,2,1.85a8.31,8.31,0,0,0,3.4-1.17c.11,0,.25-.17.25-.26,0-.8,0-1.59,0-2.39M35,36.46a32.8,32.8,0,0,0-3.82-1.25c-1.13-.33-2.28-.57-3.41-.89a1.38,1.38,0,0,1-1-1c-.36-1.28-.06-2.66,1.6-2.93a16.68,16.68,0,0,1,3.39-.14c1.47.07,2.94.27,4.4.4.75.06.9-.05,1.09-.79s.34-1.4.51-2.1c.22-.93.05-1.34-.87-1.63a25.43,25.43,0,0,0-3.63-.93,18.85,18.85,0,0,0-6.74,0c-3,.62-5.71,2.42-6.14,6.34-.34,3.14.68,5.65,3.75,7.12a21.76,21.76,0,0,0,4.45,1.42A28.79,28.79,0,0,1,31.4,41a2,2,0,0,1,1.21,2.2,1.92,1.92,0,0,1-1.4,1.94,5.94,5.94,0,0,1-2,.33c-2.41-.13-4.82-.34-7.23-.55-.75-.06-1,0-1.14.75s-.34,1.58-.5,2.38A1,1,0,0,0,21,49.31a3.64,3.64,0,0,0,.57.25,22.17,22.17,0,0,0,6.79,1.13,16.28,16.28,0,0,0,4.46-.44,7.28,7.28,0,0,0,5.92-8.52A6,6,0,0,0,35,36.46m71.55-4.6a12.82,12.82,0,0,0-1.49.66c-.51.27-1,.56-1.46.87a7.13,7.13,0,0,0-1.19,1l-.08-.07V32.5a1.2,1.2,0,0,0-.15-.55.7.7,0,0,0-.67-.28h-4.1a.77.77,0,0,0-.65.23.93.93,0,0,0-.17.6v17a1,1,0,0,0,.17.61.77.77,0,0,0,.65.22h4.14c.35,0,.57-.09.65-.26a1.25,1.25,0,0,0,.13-.57V38.27c1.4-.49,2.91-.36,4.53-.72a1.09,1.09,0,0,0,.85-1v-4a.78.78,0,0,0-1-.74l-.14.05" transform="translate(-20.25 -20.25)"/><path class="cls-3" d="M110.53,36.22v.59c0,2.51,0,5,0,7.53a16.49,16.49,0,0,0,.17,2.33,4.17,4.17,0,0,0,3.56,3.78,15.85,15.85,0,0,0,7.42-.61,1,1,0,0,0,.66-1.15c-.1-.76-.21-1.52-.3-2.28-.15-1.32-.21-1.34-1.55-1.24a20.4,20.4,0,0,1-2.82,0c-1.19-.09-1.49-.48-1.5-1.69l0-6.86c0-.14,0-.28,0-.45h.41c1.15,0,2.3,0,3.45,0,.59,0,.76-.17.76-.72q0-1.53,0-3.06c0-.52-.16-.69-.69-.7s-1.36,0-2,0h-1.9v-5c0-.68-.31-.92-1-.75-1.29.33-2.57.68-3.84,1a.93.93,0,0,0-.8,1.06v3.1c0,.15,0,.31,0,.51Z" transform="translate(-20.25 -20.25)"/><path class="cls-4" d="M205.93,46.26l-.48-.07a.85.85,0,0,1-.79-.77,4.14,4.14,0,0,1-.06-.7c0-2,0-4,0-6A23.45,23.45,0,0,0,204.4,36a4.44,4.44,0,0,0-2.93-3.88,11.5,11.5,0,0,0-2.31-.58,23.2,23.2,0,0,0-7.75.36,13.09,13.09,0,0,0-2.08.71.85.85,0,0,0-.56,1c.13.77.31,1.53.47,2.3a.65.65,0,0,0,.78.55l1.85-.16a25.22,25.22,0,0,1,5.21-.13c.72.1,1.44.28,1.67,1.09a11.13,11.13,0,0,1,.23,1.65c-1.2,0-2.29,0-3.38,0a28.79,28.79,0,0,0-3.83.29,4.86,4.86,0,0,0-4.16,3.56,8.78,8.78,0,0,0-.12,4.29,4,4,0,0,0,3.65,3.55,9.77,9.77,0,0,0,5.9-.91c.83-.4,1.58-.95,2.39-1.44,0,.07.08.19.12.31a2.77,2.77,0,0,0,2,1.87,8.62,8.62,0,0,0,4.59-.17.9.9,0,0,0,.68-1c0-.66,0-1.33,0-2s0-.85-.86-1m-7.14-1.39c0,.09-.12.22-.22.28a8.42,8.42,0,0,1-3.49,1.18c-1.73.12-2-.49-1.93-1.77s.63-2,1.94-2.05,2.42,0,3.71,0c0,.81,0,1.59,0,2.37M184,32.73V49.38c0,.76-.21,1-1,1h-3.9c-.7,0-.92-.22-.93-.93v-.81c-.64.36-1.21.72-1.82,1a9.34,9.34,0,0,1-6.06.85,4.08,4.08,0,0,1-3.46-3.65,19.35,19.35,0,0,1-.24-3c0-3.7,0-7.41,0-11.12,0-.82.21-1,1-1h3.76c.77,0,1,.2,1,1v9.66a7.2,7.2,0,0,0,.09,1.14,2,2,0,0,0,2.4,1.84,16.12,16.12,0,0,0,2.66-.78c.71-.24.7-.27.7-1V32.81c0-.9.19-1.09,1.09-1.09H183c.78,0,1,.23,1,1m35.86-.87a13,13,0,0,0-1.5.66c-.5.27-1,.56-1.45.87a6.8,6.8,0,0,0-1.2,1l-.07-.08V32.51a1.17,1.17,0,0,0-.15-.55c-.1-.19-.33-.29-.68-.29h-4.09a.78.78,0,0,0-.66.23,1,1,0,0,0-.17.61v17a1,1,0,0,0,.17.61.78.78,0,0,0,.66.22h4.13c.35,0,.57-.08.66-.26a1.22,1.22,0,0,0,.13-.57V38.27c1.39-.49,2.9-.36,4.52-.72a1.07,1.07,0,0,0,.85-1V32.56a.77.77,0,0,0-1-.74l-.13,0" transform="translate(-20.25 -20.25)"/><path class="cls-4" d="M142.43,45.19a2.39,2.39,0,1,0,2.38,2.39,2.39,2.39,0,0,0-2.38-2.39" transform="translate(-20.25 -20.25)"/><path class="cls-4" d="M157,53.2l-.11-.06,2.23-1.29a5.23,5.23,0,0,0,2.6-4.51V32.75a5.24,5.24,0,0,0-2.6-4.51L146.44,21a5.21,5.21,0,0,0-5.21,0L128.6,28.24A5.23,5.23,0,0,0,126,32.75V47.34a5.22,5.22,0,0,0,2.61,4.51l12.63,7.3a5.28,5.28,0,0,0,2.61.69,5.22,5.22,0,0,0,2.6-.69l5.63-3.26,2.5,1.45a2.37,2.37,0,0,0,1.2.32A2.39,2.39,0,0,0,157,53.2m-5.21,2.14A2.39,2.39,0,1,1,154.13,53a2.39,2.39,0,0,1-2.38,2.39m4.79-8a.06.06,0,0,1,0,.06l-4.79,2.77-2.79-1.61a2.39,2.39,0,1,0-2.39,4.13l.4.23-3.06,1.77a.09.09,0,0,1-.07,0L131.17,47.4a.07.07,0,0,1,0-.06V32.75a.09.09,0,0,1,0-.06L143.8,25.4h.07l12.63,7.29a.07.07,0,0,1,0,.06Z" transform="translate(-20.25 -20.25)"/><path class="cls-4" d="M161.11,56a2.39,2.39,0,1,0,2.38,2.39A2.39,2.39,0,0,0,161.11,56" transform="translate(-20.25 -20.25)"/><path class="cls-4" d="M235,49.85a16,16,0,0,1-7.43.6,4.2,4.2,0,0,1-3.53-3.81,18.13,18.13,0,0,1-.17-2.33c0-2.5,0-5,0-7.49,0-.17,0-6,0-6.39,0-.78,0-1.57,0-2.35a.91.91,0,0,1,.78-1c1.29-.36,2.58-.71,3.88-1,.63-.17.93.08.93.73,0,1.48,0,3,0,4.43v.55h3.74c.76,0,.89.14.89.87,0,.92,0,1.83,0,2.75,0,.73-.14.87-.88.88h-3.74a3.73,3.73,0,0,0,0,.43c0,2.3,0,4.61,0,6.91,0,1.17.31,1.57,1.48,1.65a19.67,19.67,0,0,0,2.87-.05c1.29-.09,1.36-.06,1.51,1.23.09.77.2,1.53.3,2.28a1,1,0,0,1-.68,1.18" transform="translate(-20.25 -20.25)"/></g></g></g></svg>