<svg xmlns="http://www.w3.org/2000/svg" viewBox="0 0 112.74 121.76"><defs><style>.cls-1{fill:#1cd67d;}</style></defs><g id="Ebene_2" data-name="Ebene 2"><g id="Ebene_1-2" data-name="Ebene 1"><path class="cls-1" d="M49.4,75a7.18,7.18,0,1,0,7.18,7.18A7.18,7.18,0,0,0,49.4,75"/><path class="cls-1" d="M91.83,81.44a.21.21,0,0,1-.11.18L77.31,89.94,68.92,85.1a7.18,7.18,0,0,0-7.18,12.44l1.21.69-9.2,5.31a.2.2,0,0,1-.21,0l-38-21.92a.21.21,0,0,1-.11-.18V37.59a.21.21,0,0,1,.11-.18l38-21.93.11,0,.1,0,38,21.93a.21.21,0,0,1,.11.18Zm-14.4,24A7.18,7.18,0,1,1,84.6,98.3a7.17,7.17,0,0,1-7.17,7.18m15.68-6.41-.34-.2L99.46,95a15.71,15.71,0,0,0,7.83-13.57V37.59A15.71,15.71,0,0,0,99.46,24l-38-21.93a15.71,15.71,0,0,0-15.67,0L7.84,24A15.7,15.7,0,0,0,0,37.59V81.44A15.7,15.7,0,0,0,7.84,95l38,21.93a15.7,15.7,0,0,0,15.67,0l16.93-9.77,7.52,4.34a7.18,7.18,0,0,0,7.18-12.43"/><path class="cls-1" d="M105.56,107.4a7.18,7.18,0,1,0,7.18,7.18,7.18,7.18,0,0,0-7.18-7.18"/></g></g></svg>